<svg width="153" height="169" viewBox="0 0 153 169" fill="none" xmlns="http://www.w3.org/2000/svg">
<path d="M89.8739 41.1263L44.1293 115.017H11.637L57.3795 41.1263H89.8739Z" fill="#C62C2C"/>
<path d="M137.745 66.6932L89.874 115.017H57.3796L105.253 66.6932H137.745Z" fill="#C62C2C"/>
<path d="M105.253 137.019H137.745V66.6932H105.253V137.019Z" fill="#E55353"/>
<path d="M57.3796 115.017H89.874V41.1263H57.3796V115.017Z" fill="#E55353"/>
<path d="M11.637 115.017H44.1293V0H11.637V115.017Z" fill="#E55353"/>
<path d="M44.1293 66.0236C40.8746 65.1389 37.4515 64.6641 33.9167 64.6641C25.6278 64.6641 17.9455 67.2614 11.637 71.6829V115.017H44.1293V66.0236Z" fill="#D84848"/>
<path d="M153 131.116L89.9956 131.982L122.003 168.306L153 131.116Z" fill="#E55353"/>
<path d="M77.7662 105.135C77.7662 83.6486 60.3583 66.2306 38.8821 66.2306C17.4079 66.2306 0 83.6486 0 105.135C0 126.621 17.4079 144.039 38.8821 144.039C60.3583 144.039 77.7662 126.621 77.7662 105.135Z" fill="#FFCE33"/>
<path d="M68.8584 105.135C68.8584 88.5712 55.4378 75.1445 38.8822 75.1445C22.3286 75.1445 8.90796 88.5712 8.90796 105.135C8.90796 121.699 22.3286 135.127 38.8822 135.127C55.4378 135.127 68.8584 121.699 68.8584 105.135Z" fill="#FFC001"/>
<path d="M70.435 106.886C70.435 90.3224 57.0164 76.8957 40.4608 76.8957C23.9072 76.8957 10.4866 90.3224 10.4866 106.886C10.4866 123.45 23.9072 136.877 40.4608 136.877C57.0164 136.877 70.435 123.45 70.435 106.886Z" fill="#FFDD33"/>
<path d="M68.8584 105.135C68.8584 88.5712 55.4378 75.1445 38.8822 75.1445C22.3286 75.1445 8.90796 88.5712 8.90796 105.135C8.90796 121.699 22.3286 135.127 38.8822 135.127C55.4378 135.127 68.8584 121.699 68.8584 105.135Z" fill="#FFB103"/>
<path d="M64.0088 105.135C64.0088 91.2497 52.7594 79.9941 38.8822 79.9941C25.007 79.9941 13.7576 91.2497 13.7576 105.135C13.7576 119.02 25.007 130.276 38.8822 130.276C52.7594 130.276 64.0088 119.02 64.0088 105.135Z" fill="#FFB103"/>
<path d="M12.0632 107.617C12.0632 91.0529 25.4839 77.6241 42.0375 77.6241C48.3014 77.6241 54.1168 79.5477 58.9259 82.8369C53.6156 78.0543 46.5888 75.1445 38.8822 75.1445C22.3286 75.1445 8.90796 88.5712 8.90796 105.135C8.90796 115.431 14.0944 124.513 21.9958 129.917C15.8983 124.426 12.0632 116.47 12.0632 107.617Z" fill="#EBA303"/>
<path d="M16.0402 118.951C13.8934 115.388 12.5582 111.281 12.2822 106.888L13.7675 105.87C13.8954 110.321 15.1798 114.485 17.3307 118.067L16.0402 118.951ZM58.7147 89.6974C56.091 86.3271 52.6293 83.6446 48.6441 81.9624L50.095 80.9661C53.9868 82.77 57.3694 85.483 59.9727 88.8351L58.7147 89.6974Z" fill="#FFBD1B"/>
<path d="M17.3307 118.067C15.1798 114.485 13.8954 110.321 13.7676 105.87L48.6442 81.9624C52.6294 83.6445 56.091 86.327 58.7147 89.6974L17.3307 118.067Z" fill="#FFBD1B"/>
<path d="M24.0492 127.364C21.9632 125.962 20.0863 124.274 18.4731 122.352L19.7738 121.461C21.4113 123.375 23.3288 125.043 25.4655 126.394L24.0492 127.364ZM63.544 100.291C63.051 97.7713 62.1845 95.3871 61.0016 93.1976L62.2718 92.3271C63.469 94.5003 64.3719 96.8562 64.9279 99.3418L63.544 100.291Z" fill="#FFBD1B"/>
<path d="M25.4656 126.394C23.329 125.043 21.4114 123.375 19.7739 121.461L61.0017 93.1976C62.1846 95.3871 63.0511 97.7713 63.5442 100.291L25.4656 126.394Z" fill="#FFBD1B"/>
<path d="M44.7238 115.053C45.2798 114.426 45.503 113.684 45.3914 112.823C45.3042 112.164 44.9876 111.616 44.4459 111.182C43.9 110.75 43.1391 110.378 42.157 110.07L42.1874 116.47C43.3217 116.153 44.1658 115.682 44.7238 115.053ZM36.4653 102.365C36.9949 102.818 37.7173 103.22 38.6385 103.569L38.5878 96.6168C37.486 96.9293 36.6703 97.4386 36.1407 98.1467C35.6111 98.8549 35.4102 99.6868 35.536 100.647C35.6253 101.341 35.9357 101.913 36.4653 102.365ZM46.4182 105.831C47.5687 106.286 48.5832 106.977 49.4619 107.905C50.3384 108.832 50.8741 110.039 51.0689 111.529C51.3692 113.842 50.7179 115.859 49.1108 117.584C47.5037 119.306 45.2129 120.479 42.2361 121.104L42.2767 126.041C42.2747 126.544 42.086 126.964 41.7086 127.299C41.3332 127.634 40.8807 127.837 40.3511 127.906C39.856 127.971 39.4339 127.882 39.0829 127.642C38.7318 127.403 38.5573 127.029 38.5594 126.526L38.5553 121.484C36.1021 121.467 34.0892 120.924 32.5227 119.85C30.9522 118.779 30.0573 117.383 29.8321 115.664C29.682 114.506 29.8625 113.574 30.3759 112.868C30.8893 112.164 31.5569 111.756 32.3847 111.649C33.2086 111.539 33.8518 111.691 34.3084 112.103C34.7649 112.515 35.1403 113.205 35.4345 114.175C35.6334 114.924 36.0047 115.52 36.5505 115.971C37.0964 116.421 37.7802 116.693 38.5979 116.788L38.6202 109.22C37.0213 108.824 35.6435 108.374 34.4869 107.868C33.3283 107.365 32.3239 106.622 31.4737 105.64C30.6235 104.658 30.0939 103.374 29.8869 101.787C29.5683 99.3419 30.2339 97.2377 31.8856 95.4744C33.5373 93.7131 35.7714 92.5463 38.5878 91.9762L38.535 86.9399C38.5026 86.4407 38.6689 86.0329 39.0301 85.7163C39.3913 85.3998 39.8215 85.209 40.3166 85.1441C40.8117 85.0792 41.252 85.1644 41.6355 85.3998C42.019 85.6372 42.2077 85.9903 42.2016 86.461L42.1753 91.6596C44.3322 91.7144 46.0955 92.2237 47.4652 93.1876C48.8328 94.1514 49.6282 95.4764 49.8494 97.1626C49.9955 98.2867 49.8149 99.1593 49.3076 99.7802C48.8004 100.401 48.1186 100.768 47.2582 100.88C46.5643 100.969 45.9677 100.829 45.4645 100.458C44.9633 100.087 44.6488 99.5407 44.5209 98.8163C44.2409 97.4406 43.4597 96.6188 42.1814 96.3489L42.1408 104.524C43.8392 104.94 45.2656 105.376 46.4182 105.831Z" fill="#EBA303"/>
<path d="M43.1452 114.497C43.7032 113.87 43.9244 113.126 43.8128 112.265C43.7275 111.606 43.411 111.058 42.8672 110.624C42.3234 110.192 41.5604 109.82 40.5804 109.512L40.6088 115.912C41.7431 115.597 42.5892 115.124 43.1452 114.497ZM34.8866 101.807C35.4163 102.26 36.1406 102.662 37.0598 103.013L37.0111 96.0587C35.9073 96.3712 35.0936 96.8805 34.564 97.5887C34.0344 98.2969 33.8315 99.1308 33.9573 100.089C34.0486 100.783 34.357 101.357 34.8866 101.807ZM44.8415 105.273C45.992 105.728 47.0066 106.419 47.8832 107.347C48.7618 108.274 49.2955 109.481 49.4903 110.969C49.7926 113.284 49.1392 115.303 47.5342 117.026C45.9271 118.748 43.6342 119.921 40.6595 120.544L40.6981 125.483C40.696 125.988 40.5073 126.408 40.1319 126.743C39.7545 127.076 39.302 127.279 38.7745 127.348C38.2793 127.413 37.8553 127.323 37.5042 127.086C37.1532 126.845 36.9787 126.473 36.9807 125.97L36.9787 120.926C34.5234 120.911 32.5126 120.368 30.9441 119.292C29.3755 118.221 28.4787 116.825 28.2555 115.106C28.1053 113.95 28.2859 113.018 28.7972 112.312C29.3106 111.606 29.9802 111.198 30.8061 111.09C31.6319 110.983 32.2731 111.135 32.7297 111.545C33.1862 111.957 33.5637 112.647 33.8579 113.617C34.0567 114.365 34.4281 114.964 34.9739 115.413C35.5197 115.863 36.2015 116.135 37.0213 116.23L37.0416 108.664C35.4447 108.266 34.0669 107.815 32.9083 107.31C31.7517 106.807 30.7472 106.064 29.897 105.082C29.0448 104.102 28.5172 102.816 28.3103 101.231C27.9917 98.7838 28.6572 96.6796 30.3089 94.9163C31.9607 93.1551 34.1927 91.9883 37.0091 91.4181L36.9564 86.3818C36.9259 85.8827 37.0903 85.4748 37.4535 85.1583C37.8147 84.8417 38.2428 84.651 38.74 84.5861C39.2351 84.5211 39.6754 84.6084 40.0589 84.8438C40.4404 85.0791 40.6311 85.4322 40.625 85.903L40.5966 91.1016C42.7536 91.1564 44.5189 91.6657 45.8865 92.6295C47.2562 93.5954 48.0516 94.9184 48.2708 96.6046C48.4189 97.7287 48.2363 98.6012 47.731 99.2221C47.2237 99.843 46.5399 100.21 45.6816 100.322C44.9876 100.413 44.389 100.273 43.8878 99.8999C43.3846 99.5306 43.0701 98.9827 42.9423 98.2603C42.6623 96.8846 41.8831 96.0608 40.6047 95.7909L40.5621 103.966C42.2625 104.384 43.689 104.818 44.8415 105.273Z" fill="#FFDD33"/>
<path d="M58.6457 76.5203C55.3017 75.5199 54.1897 74.408 53.1914 71.0619C53.0778 70.6886 52.5522 70.6886 52.4406 71.0619C51.4403 74.408 50.3283 75.5199 46.9843 76.5203C46.613 76.6319 46.613 77.1595 46.9843 77.2711C50.3283 78.2694 51.4403 79.3834 52.4406 82.7294C52.5522 83.1028 53.0778 83.1028 53.1914 82.7294C54.1897 79.3834 55.3017 78.2694 58.6457 77.2711C59.019 77.1595 59.019 76.6319 58.6457 76.5203Z" fill="white"/>
<path d="M24.3029 125.625C20.9589 124.627 19.847 123.515 18.8486 120.169C18.737 119.795 18.2094 119.795 18.0978 120.169C17.0995 123.515 15.9855 124.627 12.6415 125.625C12.2702 125.737 12.2702 126.264 12.6415 126.376C15.9855 127.376 17.0995 128.49 18.0978 131.834C18.2094 132.208 18.737 132.208 18.8486 131.834C19.847 128.49 20.9589 127.376 24.3029 126.376C24.6763 126.264 24.6763 125.737 24.3029 125.625Z" fill="white"/>
<path d="M62.4119 86.3291C60.7033 85.8178 60.1352 85.2476 59.6238 83.539C59.567 83.3483 59.2972 83.3483 59.2403 83.539C58.731 85.2476 58.1629 85.8178 56.4523 86.3291C56.2636 86.3859 56.2636 86.6558 56.4523 86.7126C58.1629 87.2219 58.731 87.7921 59.2403 89.5006C59.2972 89.6914 59.567 89.6914 59.6238 89.5006C60.1352 87.7921 60.7033 87.2219 62.4119 86.7126C62.6026 86.6558 62.6026 86.3859 62.4119 86.3291Z" fill="white"/>
</svg>
