<svg width="145" height="165" viewBox="0 0 145 165" fill="none" xmlns="http://www.w3.org/2000/svg">
<path d="M109.364 24.2229L91.8431 0L74.3179 24.2229H83.7542V164.581H99.5092V24.2229H109.364Z" fill="#26C2AD"/>
<path d="M62.8137 52.3354V164.581H78.5707V52.3354H62.8137Z" fill="#26C2AD"/>
<path d="M41.877 81.7081V164.581H57.632V81.7081H41.877Z" fill="#26C2AD"/>
<path d="M20.9365 111.083V164.581H36.6955V111.083H20.9365Z" fill="#26C2AD"/>
<path d="M0 136.256V164.581H15.755V136.256H0Z" fill="#26C2AD"/>
<path d="M145 127.687C145 147.459 128.941 163.488 109.138 163.488C89.3345 163.488 73.2778 147.459 73.2778 127.687C73.2778 107.914 89.3345 91.8827 109.138 91.8827C128.941 91.8827 145 107.914 145 127.687Z" fill="#F78F34"/>
<path d="M136.935 127.687C136.935 143.014 124.488 155.437 109.138 155.437C93.7859 155.437 81.343 143.014 81.343 127.687C81.343 112.361 93.7859 99.9378 109.138 99.9378C124.488 99.9378 136.935 112.361 136.935 127.687Z" fill="#FABB35"/>
<path d="M118.42 118.287C118.42 118.287 117.91 112.355 110.087 111.772C103.853 111.307 100.124 113.506 99.4775 117.662C99.4775 117.662 98.5884 123.599 102.299 125.512C106.683 127.779 118.805 128.066 118.932 136.117C118.932 136.117 119.428 143.272 109.456 143.272C109.456 143.272 99.8387 143.526 99.3406 137.518" stroke="#F78F34" stroke-width="9.059" stroke-miterlimit="10" stroke-linecap="round"/>
<path d="M104.989 106.608V112.101" stroke="#F78F34" stroke-width="9.059" stroke-miterlimit="10" stroke-linecap="round"/>
<path d="M112.024 106.608V112.101" stroke="#F78F34" stroke-width="9.059" stroke-miterlimit="10" stroke-linecap="round"/>
<path d="M105.62 143.272V148.765" stroke="#F78F34" stroke-width="9.059" stroke-miterlimit="10" stroke-linecap="round"/>
<path d="M112.657 143.272V148.765" stroke="#F78F34" stroke-width="9.059" stroke-miterlimit="10" stroke-linecap="round"/>
</svg>
